<svg width="48" height="48" viewBox="20 20 136 136" fill="none" xmlns="http://www.w3.org/2000/svg">
  <defs>
    <linearGradient id="iconBg" x1="28" y1="24" x2="154" y2="152" gradientUnits="userSpaceOnUse">
      <stop offset="0%" stop-color="#7C3AED"/>
      <stop offset="55%" stop-color="#5B5CF0"/>
      <stop offset="100%" stop-color="#3B82F6"/>
    </linearGradient>
    <linearGradient id="iconStroke" x1="52" y1="44" x2="132" y2="124" gradientUnits="userSpaceOnUse">
      <stop offset="0%" stop-color="#FFFFFF"/>
      <stop offset="100%" stop-color="#C4B5FD"/>
    </linearGradient>
    <linearGradient id="nodeGlow" x1="72" y1="60" x2="118" y2="106" gradientUnits="userSpaceOnUse">
      <stop offset="0%" stop-color="#E9D5FF"/>
      <stop offset="100%" stop-color="#FFFFFF"/>
    </linearGradient>
  </defs>
  <rect x="24" y="24" width="128" height="128" rx="32" fill="url(#iconBg)"/>
  <g opacity="0.22">
    <path d="M52 88C52 68.1177 68.1177 52 88 52C107.882 52 124 68.1177 124 88" stroke="white" stroke-width="2.5" stroke-linecap="round"/>
    <path d="M52 88C52 107.882 68.1177 124 88 124C107.882 124 124 107.882 124 88" stroke="white" stroke-width="2.5" stroke-linecap="round"/>
  </g>
  <path d="M88 54L122 88L88 122L54 88L88 54Z" stroke="url(#iconStroke)" stroke-width="5" stroke-linejoin="round" fill="none"/>
  <circle cx="88" cy="88" r="11" fill="#FFFFFF"/>
  <path d="M88 54V69" stroke="white" stroke-width="5" stroke-linecap="round"/>
  <path d="M122 88H107" stroke="white" stroke-width="5" stroke-linecap="round"/>
  <path d="M88 122V107" stroke="white" stroke-width="5" stroke-linecap="round"/>
  <path d="M54 88H69" stroke="white" stroke-width="5" stroke-linecap="round"/>
  <circle cx="88" cy="50" r="4.5" fill="#EDE9FE"/>
  <circle cx="126" cy="88" r="4.5" fill="#EDE9FE"/>
  <circle cx="88" cy="126" r="4.5" fill="#EDE9FE"/>
  <circle cx="50" cy="88" r="4.5" fill="#EDE9FE"/>
</svg>
