<svg width="900" height="240" viewBox="0 0 900 240" fill="none" xmlns="http://www.w3.org/2000/svg">
  <defs>
    <linearGradient id="iconBg" x1="28" y1="24" x2="154" y2="152" gradientUnits="userSpaceOnUse">
      <stop offset="0%" stop-color="#7C3AED"/>
      <stop offset="55%" stop-color="#5B5CF0"/>
      <stop offset="100%" stop-color="#3B82F6"/>
    </linearGradient>
    <linearGradient id="iconStroke" x1="52" y1="44" x2="132" y2="124" gradientUnits="userSpaceOnUse">
      <stop offset="0%" stop-color="#FFFFFF"/>
      <stop offset="100%" stop-color="#C4B5FD"/>
    </linearGradient>
    <linearGradient id="nodeGlow" x1="72" y1="60" x2="118" y2="106" gradientUnits="userSpaceOnUse">
      <stop offset="0%" stop-color="#E9D5FF"/>
      <stop offset="100%" stop-color="#FFFFFF"/>
    </linearGradient>
    <filter id="shadow" x="0" y="0" width="220" height="220" filterUnits="userSpaceOnUse" color-interpolation-filters="sRGB">
      <feDropShadow dx="0" dy="16" stdDeviation="18" flood-color="#4F46E5" flood-opacity="0.20"/>
    </filter>
    <filter id="glow" x="-50%" y="-50%" width="200%" height="200%">
      <feGaussianBlur stdDeviation="6" result="blur"/>
      <feMerge>
        <feMergeNode in="blur"/>
        <feMergeNode in="SourceGraphic"/>
      </feMerge>
    </filter>
  </defs>

  <g filter="url(#shadow)">
    <rect x="24" y="24" width="128" height="128" rx="32" fill="url(#iconBg)"/>
  </g>

  <g opacity="0.22">
    <path d="M52 88C52 68.1177 68.1177 52 88 52C107.882 52 124 68.1177 124 88" stroke="white" stroke-width="2.5" stroke-linecap="round"/>
    <path d="M52 88C52 107.882 68.1177 124 88 124C107.882 124 124 107.882 124 88" stroke="white" stroke-width="2.5" stroke-linecap="round"/>
    <path d="M88 52V44" stroke="white" stroke-width="2.5" stroke-linecap="round"/>
    <path d="M124 88H132" stroke="white" stroke-width="2.5" stroke-linecap="round"/>
    <path d="M88 124V132" stroke="white" stroke-width="2.5" stroke-linecap="round"/>
    <path d="M52 88H44" stroke="white" stroke-width="2.5" stroke-linecap="round"/>
  </g>

  <g>
    <path d="M88 54L122 88L88 122L54 88L88 54Z" stroke="url(#iconStroke)" stroke-width="5" stroke-linejoin="round" fill="none"/>
    <path d="M88 65L111 88L88 111L65 88L88 65Z" stroke="white" stroke-opacity="0.24" stroke-width="3" stroke-linejoin="round" fill="none"/>
    <circle cx="88" cy="88" r="11" fill="url(#nodeGlow)" filter="url(#glow)"/>
    <path d="M88 54V69" stroke="white" stroke-width="5" stroke-linecap="round"/>
    <path d="M122 88H107" stroke="white" stroke-width="5" stroke-linecap="round"/>
    <path d="M88 122V107" stroke="white" stroke-width="5" stroke-linecap="round"/>
    <path d="M54 88H69" stroke="white" stroke-width="5" stroke-linecap="round"/>
    <circle cx="88" cy="50" r="4.5" fill="#EDE9FE"/>
    <circle cx="126" cy="88" r="4.5" fill="#EDE9FE"/>
    <circle cx="88" cy="126" r="4.5" fill="#EDE9FE"/>
    <circle cx="50" cy="88" r="4.5" fill="#EDE9FE"/>
    <path d="M70 70L76 76" stroke="white" stroke-opacity="0.85" stroke-width="3.5" stroke-linecap="round"/>
    <path d="M106 70L100 76" stroke="white" stroke-opacity="0.85" stroke-width="3.5" stroke-linecap="round"/>
    <path d="M106 106L100 100" stroke="white" stroke-opacity="0.85" stroke-width="3.5" stroke-linecap="round"/>
    <path d="M70 106L76 100" stroke="white" stroke-opacity="0.85" stroke-width="3.5" stroke-linecap="round"/>
  </g>

  <g>
    <text x="184" y="102" fill="#0F172A" font-family="Inter, Arial, Helvetica, sans-serif" font-size="68" font-weight="700" letter-spacing="-2.4">Synorq</text>
    <text x="186" y="134" fill="#64748B" font-family="Inter, Arial, Helvetica, sans-serif" font-size="16" font-weight="600" letter-spacing="3.4">AI OPERATIONS CONTROL LAYER</text>
  </g>
</svg>
